<svg xmlns="http://www.w3.org/2000/svg" viewBox="0 0 16 16" width="16" height="16" fill="currentColor" shape-rendering="crispEdges"><rect x="2" y="1" width="1" height="1"></rect><rect x="13" y="1" width="1" height="1"></rect><rect x="2" y="2" width="1" height="1"></rect><rect x="13" y="2" width="1" height="1"></rect><rect x="1" y="3" width="12" height="1"></rect><rect x="1" y="4" width="1" height="1"></rect><rect x="12" y="4" width="1" height="1"></rect><rect x="1" y="5" width="1" height="1"></rect><rect x="3" y="5" width="2" height="1"></rect><rect x="6" y="5" width="2" height="1"></rect><rect x="9" y="5" width="2" height="1"></rect><rect x="12" y="5" width="1" height="1"></rect><rect x="1" y="6" width="1" height="1"></rect><rect x="12" y="6" width="1" height="1"></rect><rect x="1" y="7" width="1" height="1"></rect><rect x="3" y="7" width="2" height="1"></rect><rect x="6" y="7" width="2" height="1"></rect><rect x="9" y="7" width="2" height="1"></rect><rect x="12" y="7" width="1" height="1"></rect><rect x="1" y="8" width="1" height="1"></rect><rect x="12" y="8" width="1" height="1"></rect><rect x="1" y="9" width="1" height="1"></rect><rect x="3" y="9" width="2" height="1"></rect><rect x="6" y="9" width="2" height="1"></rect><rect x="9" y="9" width="2" height="1"></rect><rect x="12" y="9" width="1" height="1"></rect><rect x="1" y="10" width="1" height="1"></rect><rect x="12" y="10" width="1" height="1"></rect><rect x="1" y="11" width="12" height="1"></rect></svg>