<svg xmlns="http://www.w3.org/2000/svg" viewBox="0 0 16 16" width="16" height="16" fill="currentColor" shape-rendering="crispEdges"><rect x="2" y="1" width="10" height="1"></rect><rect x="1" y="2" width="1" height="1"></rect><rect x="12" y="2" width="1" height="1"></rect><rect x="1" y="3" width="1" height="1"></rect><rect x="3" y="3" width="8" height="1"></rect><rect x="12" y="3" width="1" height="1"></rect><rect x="1" y="4" width="1" height="1"></rect><rect x="3" y="4" width="1" height="1"></rect><rect x="10" y="4" width="1" height="1"></rect><rect x="12" y="4" width="1" height="1"></rect><rect x="1" y="5" width="1" height="1"></rect><rect x="3" y="5" width="1" height="1"></rect><rect x="10" y="5" width="1" height="1"></rect><rect x="12" y="5" width="1" height="1"></rect><rect x="1" y="6" width="1" height="1"></rect><rect x="3" y="6" width="8" height="1"></rect><rect x="12" y="6" width="1" height="1"></rect><rect x="1" y="7" width="1" height="1"></rect><rect x="12" y="7" width="1" height="1"></rect><rect x="1" y="8" width="1" height="1"></rect><rect x="12" y="8" width="1" height="1"></rect><rect x="1" y="9" width="12" height="1"></rect><rect x="2" y="10" width="1" height="1"></rect><rect x="11" y="10" width="1" height="1"></rect><rect x="1" y="11" width="3" height="1"></rect><rect x="10" y="11" width="3" height="1"></rect><rect x="1" y="12" width="1" height="1"></rect><rect x="3" y="12" width="1" height="1"></rect><rect x="10" y="12" width="1" height="1"></rect><rect x="12" y="12" width="1" height="1"></rect><rect x="1" y="13" width="3" height="1"></rect><rect x="10" y="13" width="3" height="1"></rect></svg>