<svg xmlns="http://www.w3.org/2000/svg" viewBox="0 0 16 16" width="16" height="16" fill="currentColor" shape-rendering="crispEdges"><rect x="2" y="1" width="3" height="1"></rect><rect x="10" y="1" width="3" height="1"></rect><rect x="1" y="2" width="1" height="1"></rect><rect x="5" y="2" width="1" height="1"></rect><rect x="9" y="2" width="1" height="1"></rect><rect x="13" y="2" width="1" height="1"></rect><rect x="1" y="3" width="1" height="1"></rect><rect x="5" y="3" width="1" height="1"></rect><rect x="9" y="3" width="1" height="1"></rect><rect x="13" y="3" width="1" height="1"></rect><rect x="1" y="4" width="1" height="1"></rect><rect x="5" y="4" width="5" height="1"></rect><rect x="13" y="4" width="1" height="1"></rect><rect x="2" y="5" width="3" height="1"></rect><rect x="10" y="5" width="3" height="1"></rect><rect x="6" y="6" width="1" height="1"></rect><rect x="8" y="6" width="1" height="1"></rect><rect x="6" y="7" width="1" height="1"></rect><rect x="8" y="7" width="1" height="1"></rect><rect x="2" y="8" width="3" height="1"></rect><rect x="10" y="8" width="3" height="1"></rect><rect x="1" y="9" width="1" height="1"></rect><rect x="5" y="9" width="5" height="1"></rect><rect x="13" y="9" width="1" height="1"></rect><rect x="1" y="10" width="1" height="1"></rect><rect x="5" y="10" width="1" height="1"></rect><rect x="9" y="10" width="1" height="1"></rect><rect x="13" y="10" width="1" height="1"></rect><rect x="1" y="11" width="1" height="1"></rect><rect x="5" y="11" width="1" height="1"></rect><rect x="9" y="11" width="1" height="1"></rect><rect x="13" y="11" width="1" height="1"></rect><rect x="2" y="12" width="3" height="1"></rect><rect x="10" y="12" width="3" height="1"></rect></svg>