<svg xmlns="http://www.w3.org/2000/svg" viewBox="0 0 16 16" width="16" height="16" fill="currentColor" shape-rendering="crispEdges"><rect x="1" y="1" width="1" height="1"></rect><rect x="1" y="2" width="1" height="1"></rect><rect x="12" y="2" width="2" height="1"></rect><rect x="1" y="3" width="1" height="1"></rect><rect x="10" y="3" width="3" height="1"></rect><rect x="1" y="4" width="1" height="1"></rect><rect x="8" y="4" width="3" height="1"></rect><rect x="1" y="5" width="1" height="1"></rect><rect x="6" y="5" width="3" height="1"></rect><rect x="1" y="6" width="1" height="1"></rect><rect x="5" y="6" width="2" height="1"></rect><rect x="1" y="7" width="1" height="1"></rect><rect x="1" y="8" width="1" height="1"></rect><rect x="6" y="8" width="1" height="1"></rect><rect x="10" y="8" width="1" height="1"></rect><rect x="14" y="8" width="1" height="1"></rect><rect x="1" y="9" width="1" height="1"></rect><rect x="6" y="9" width="1" height="1"></rect><rect x="10" y="9" width="1" height="1"></rect><rect x="12" y="9" width="3" height="1"></rect><rect x="1" y="10" width="1" height="1"></rect><rect x="4" y="10" width="1" height="1"></rect><rect x="6" y="10" width="1" height="1"></rect><rect x="8" y="10" width="3" height="1"></rect><rect x="12" y="10" width="3" height="1"></rect><rect x="1" y="11" width="1" height="1"></rect><rect x="3" y="11" width="2" height="1"></rect><rect x="6" y="11" width="1" height="1"></rect><rect x="8" y="11" width="3" height="1"></rect><rect x="12" y="11" width="3" height="1"></rect><rect x="1" y="12" width="17" height="1"></rect></svg>