<svg xmlns="http://www.w3.org/2000/svg" viewBox="0 0 16 16" width="16" height="16" fill="currentColor" shape-rendering="crispEdges"><rect x="2" y="1" width="4" height="1"></rect><rect x="9" y="1" width="4" height="1"></rect><rect x="2" y="2" width="4" height="1"></rect><rect x="9" y="2" width="4" height="1"></rect><rect x="2" y="3" width="4" height="1"></rect><rect x="9" y="3" width="4" height="1"></rect><rect x="2" y="4" width="4" height="1"></rect><rect x="9" y="4" width="4" height="1"></rect><rect x="2" y="8" width="4" height="1"></rect><rect x="9" y="8" width="4" height="1"></rect><rect x="2" y="9" width="4" height="1"></rect><rect x="9" y="9" width="4" height="1"></rect><rect x="2" y="10" width="4" height="1"></rect><rect x="9" y="10" width="4" height="1"></rect><rect x="2" y="11" width="4" height="1"></rect><rect x="9" y="11" width="4" height="1"></rect></svg>