<svg xmlns="http://www.w3.org/2000/svg" viewBox="0 0 32 16" width="32" height="16" shape-rendering="crispEdges"><rect x="3" y="1" width="2" height="1" fill="#935fa7"></rect><rect x="13" y="1" width="2" height="1" fill="#5863f8"></rect><rect x="23" y="1" width="2" height="1" fill="#935fa7"></rect><rect x="2" y="2" width="1" height="1" fill="#935fa7"></rect><rect x="5" y="2" width="1" height="1" fill="#935fa7"></rect><rect x="12" y="2" width="1" height="1" fill="#5863f8"></rect><rect x="15" y="2" width="1" height="1" fill="#5863f8"></rect><rect x="22" y="2" width="1" height="1" fill="#935fa7"></rect><rect x="25" y="2" width="1" height="1" fill="#935fa7"></rect><rect x="1" y="3" width="1" height="1" fill="#935fa7"></rect><rect x="6" y="3" width="1" height="1" fill="#935fa7"></rect><rect x="11" y="3" width="1" height="1" fill="#5863f8"></rect><rect x="16" y="3" width="1" height="1" fill="#5863f8"></rect><rect x="21" y="3" width="1" height="1" fill="#935fa7"></rect><rect x="26" y="3" width="1" height="1" fill="#935fa7"></rect><rect x="0" y="4" width="1" height="1" fill="#935fa7"></rect><rect x="7" y="4" width="1" height="1" fill="#935fa7"></rect><rect x="10" y="4" width="1" height="1" fill="#5863f8"></rect><rect x="17" y="4" width="1" height="1" fill="#5863f8"></rect><rect x="20" y="4" width="1" height="1" fill="#935fa7"></rect><rect x="27" y="4" width="1" height="1" fill="#935fa7"></rect><rect x="1" y="5" width="1" height="1" fill="#935fa7"></rect><rect x="6" y="5" width="1" height="1" fill="#935fa7"></rect><rect x="9" y="5" width="1" height="1" fill="#5863f8"></rect><rect x="18" y="5" width="1" height="1" fill="#5863f8"></rect><rect x="21" y="5" width="1" height="1" fill="#935fa7"></rect><rect x="26" y="5" width="1" height="1" fill="#935fa7"></rect><rect x="2" y="6" width="1" height="1" fill="#935fa7"></rect><rect x="5" y="6" width="1" height="1" fill="#935fa7"></rect><rect x="8" y="6" width="1" height="1" fill="#5863f8"></rect><rect x="13" y="6" width="2" height="1" fill="#5863f8"></rect><rect x="19" y="6" width="1" height="1" fill="#5863f8"></rect><rect x="22" y="6" width="1" height="1" fill="#935fa7"></rect><rect x="25" y="6" width="1" height="1" fill="#935fa7"></rect><rect x="3" y="7" width="2" height="1" fill="#935fa7"></rect><rect x="7" y="7" width="1" height="1" fill="#5863f8"></rect><rect x="12" y="7" width="1" height="1" fill="#5863f8"></rect><rect x="15" y="7" width="1" height="1" fill="#5863f8"></rect><rect x="20" y="7" width="1" height="1" fill="#5863f8"></rect><rect x="23" y="7" width="2" height="1" fill="#935fa7"></rect><rect x="6" y="8" width="1" height="1" fill="#5863f8"></rect><rect x="11" y="8" width="1" height="1" fill="#5863f8"></rect><rect x="16" y="8" width="1" height="1" fill="#5863f8"></rect><rect x="21" y="8" width="1" height="1" fill="#5863f8"></rect><rect x="3" y="9" width="2" height="1" fill="#935fa7"></rect><rect x="7" y="9" width="1" height="1" fill="#5863f8"></rect><rect x="12" y="9" width="1" height="1" fill="#5863f8"></rect><rect x="15" y="9" width="1" height="1" fill="#5863f8"></rect><rect x="20" y="9" width="1" height="1" fill="#5863f8"></rect><rect x="23" y="9" width="2" height="1" fill="#935fa7"></rect><rect x="2" y="10" width="1" height="1" fill="#935fa7"></rect><rect x="5" y="10" width="1" height="1" fill="#935fa7"></rect><rect x="8" y="10" width="1" height="1" fill="#5863f8"></rect><rect x="13" y="10" width="2" height="1" fill="#5863f8"></rect><rect x="19" y="10" width="1" height="1" fill="#5863f8"></rect><rect x="22" y="10" width="1" height="1" fill="#935fa7"></rect><rect x="25" y="10" width="1" height="1" fill="#935fa7"></rect><rect x="1" y="11" width="1" height="1" fill="#935fa7"></rect><rect x="6" y="11" width="1" height="1" fill="#935fa7"></rect><rect x="9" y="11" width="1" height="1" fill="#5863f8"></rect><rect x="18" y="11" width="1" height="1" fill="#5863f8"></rect><rect x="21" y="11" width="1" height="1" fill="#935fa7"></rect><rect x="26" y="11" width="1" height="1" fill="#935fa7"></rect><rect x="0" y="12" width="1" height="1" fill="#935fa7"></rect><rect x="7" y="12" width="1" height="1" fill="#935fa7"></rect><rect x="10" y="12" width="1" height="1" fill="#5863f8"></rect><rect x="17" y="12" width="1" height="1" fill="#5863f8"></rect><rect x="20" y="12" width="1" height="1" fill="#935fa7"></rect><rect x="27" y="12" width="1" height="1" fill="#935fa7"></rect><rect x="1" y="13" width="1" height="1" fill="#935fa7"></rect><rect x="6" y="13" width="1" height="1" fill="#935fa7"></rect><rect x="11" y="13" width="1" height="1" fill="#5863f8"></rect><rect x="16" y="13" width="1" height="1" fill="#5863f8"></rect><rect x="21" y="13" width="1" height="1" fill="#935fa7"></rect><rect x="26" y="13" width="1" height="1" fill="#935fa7"></rect><rect x="2" y="14" width="1" height="1" fill="#935fa7"></rect><rect x="5" y="14" width="1" height="1" fill="#935fa7"></rect><rect x="12" y="14" width="1" height="1" fill="#5863f8"></rect><rect x="15" y="14" width="1" height="1" fill="#5863f8"></rect><rect x="22" y="14" width="1" height="1" fill="#935fa7"></rect><rect x="25" y="14" width="1" height="1" fill="#935fa7"></rect><rect x="3" y="15" width="2" height="1" fill="#935fa7"></rect><rect x="13" y="15" width="2" height="1" fill="#5863f8"></rect><rect x="23" y="15" width="2" height="1" fill="#935fa7"></rect></svg>